# Blender 4.0.2
# www.blender.org
mtllib sphere.mtl
o Icosphere
v 0.000000 -1.000000 0.000000
v 0.723607 -0.447220 0.525725
v -0.276388 -0.447220 0.850649
v -0.894426 -0.447216 0.000000
v -0.276388 -0.447220 -0.850649
v 0.723607 -0.447220 -0.525725
v 0.276388 0.447220 0.850649
v -0.723607 0.447220 0.525725
v -0.723607 0.447220 -0.525725
v 0.276388 0.447220 -0.850649
v 0.894426 0.447216 0.000000
v 0.000000 1.000000 0.000000
v -0.162456 -0.850654 0.499995
v 0.425323 -0.850654 0.309011
v 0.262869 -0.525738 0.809012
v 0.850648 -0.525736 0.000000
v 0.425323 -0.850654 -0.309011
v -0.525730 -0.850652 0.000000
v -0.688189 -0.525736 0.499997
v -0.162456 -0.850654 -0.499995
v -0.688189 -0.525736 -0.499997
v 0.262869 -0.525738 -0.809012
v 0.951058 0.000000 0.309013
v 0.951058 0.000000 -0.309013
v 0.000000 0.000000 1.000000
v 0.587786 0.000000 0.809017
v -0.951058 0.000000 0.309013
v -0.587786 0.000000 0.809017
v -0.587786 0.000000 -0.809017
v -0.951058 0.000000 -0.309013
v 0.587786 0.000000 -0.809017
v 0.000000 0.000000 -1.000000
v 0.688189 0.525736 0.499997
v -0.262869 0.525738 0.809012
v -0.850648 0.525736 0.000000
v -0.262869 0.525738 -0.809012
v 0.688189 0.525736 -0.499997
v 0.162456 0.850654 0.499995
v 0.525730 0.850652 0.000000
v -0.425323 0.850654 0.309011
v -0.425323 0.850654 -0.309011
v 0.162456 0.850654 -0.499995
v 0.000000 -1.000000 0.000000
v 0.723607 -0.447220 0.525725
v -0.276388 -0.447220 0.850649
v -0.894426 -0.447216 0.000000
v -0.276388 -0.447220 -0.850649
v 0.723607 -0.447220 -0.525725
v 0.276388 0.447220 0.850649
v -0.723607 0.447220 0.525725
v -0.723607 0.447220 -0.525725
v 0.276388 0.447220 -0.850649
v 0.894426 0.447216 0.000000
v 0.000000 1.000000 0.000000
v -0.162456 -0.850654 0.499995
v 0.425323 -0.850654 0.309011
v 0.262869 -0.525738 0.809012
v 0.850648 -0.525736 0.000000
v 0.425323 -0.850654 -0.309011
v -0.525730 -0.850652 0.000000
v -0.688189 -0.525736 0.499997
v -0.162456 -0.850654 -0.499995
v -0.688189 -0.525736 -0.499997
v 0.262869 -0.525738 -0.809012
v 0.951058 0.000000 0.309013
v 0.951058 0.000000 -0.309013
v 0.000000 0.000000 1.000000
v 0.587786 0.000000 0.809017
v -0.951058 0.000000 0.309013
v -0.587786 0.000000 0.809017
v -0.587786 0.000000 -0.809017
v -0.951058 0.000000 -0.309013
v 0.587786 0.000000 -0.809017
v 0.000000 0.000000 -1.000000
v 0.688189 0.525736 0.499997
v -0.262869 0.525738 0.809012
v -0.850648 0.525736 0.000000
v -0.262869 0.525738 -0.809012
v 0.688189 0.525736 -0.499997
v 0.162456 0.850654 0.499995
v 0.525730 0.850652 0.000000
v -0.425323 0.850654 0.309011
v -0.425323 0.850654 -0.309011
v 0.162456 0.850654 -0.499995
vn -0.1024 0.9435 -0.3151
vn -0.7002 0.6617 -0.2680
vn 0.2680 0.9435 -0.1947
vn 0.2680 0.9435 0.1947
vn -0.1024 0.9435 0.3151
vn -0.9050 0.3304 -0.2680
vn -0.0247 0.3304 -0.9435
vn 0.8897 0.3304 -0.3151
vn 0.5746 0.3304 0.7488
vn -0.5346 0.3304 0.7779
vn -0.8026 0.1256 -0.5831
vn 0.3066 0.1256 -0.9435
vn 0.9921 0.1256 -0.0000
vn 0.3066 0.1256 0.9435
vn -0.8026 0.1256 0.5831
vn -0.4089 -0.6617 -0.6284
vn 0.4713 -0.6617 -0.5831
vn 0.7002 -0.6617 0.2680
vn -0.0385 -0.6617 0.7488
vn -0.7240 -0.6617 0.1947
vn -0.2680 -0.9435 0.1947
vn -0.4911 -0.7947 0.3568
vn -0.4089 -0.6617 0.6284
vn 0.1024 -0.9435 0.3151
vn 0.1876 -0.7947 0.5773
vn 0.4713 -0.6617 0.5831
vn 0.3313 -0.9435 -0.0000
vn 0.6071 -0.7947 -0.0000
vn 0.7002 -0.6617 -0.2680
vn 0.1024 -0.9435 -0.3151
vn 0.1876 -0.7947 -0.5773
vn -0.0385 -0.6617 -0.7488
vn -0.2680 -0.9435 -0.1947
vn -0.4911 -0.7947 -0.3568
vn -0.7240 -0.6617 -0.1947
vn -0.8897 -0.3304 0.3151
vn -0.7947 -0.1876 0.5773
vn -0.5746 -0.3304 0.7488
vn 0.0247 -0.3304 0.9435
vn 0.3035 -0.1876 0.9342
vn 0.5346 -0.3304 0.7779
vn 0.9050 -0.3304 0.2680
vn 0.9822 -0.1876 -0.0000
vn 0.9050 -0.3304 -0.2680
vn 0.5346 -0.3304 -0.7779
vn 0.3035 -0.1876 -0.9342
vn 0.0247 -0.3304 -0.9435
vn -0.5746 -0.3304 -0.7488
vn -0.7947 -0.1876 -0.5773
vn -0.8897 -0.3304 -0.3151
vn -0.3066 -0.1256 0.9435
vn -0.3035 0.1876 0.9342
vn -0.0247 0.3304 0.9435
vn 0.8026 -0.1256 0.5831
vn 0.7947 0.1876 0.5773
vn 0.8897 0.3304 0.3151
vn 0.8026 -0.1256 -0.5831
vn 0.7947 0.1876 -0.5773
vn 0.5746 0.3304 -0.7488
vn -0.3066 -0.1256 -0.9435
vn -0.3035 0.1876 -0.9342
vn -0.5346 0.3304 -0.7779
vn -0.9921 -0.1256 -0.0000
vn -0.9822 0.1876 -0.0000
vn -0.9050 0.3304 0.2680
vn -0.4713 0.6617 0.5831
vn -0.1876 0.7947 0.5773
vn 0.0385 0.6617 0.7488
vn 0.4089 0.6617 0.6284
vn 0.4911 0.7947 0.3568
vn 0.7240 0.6617 0.1947
vn 0.7240 0.6617 -0.1947
vn 0.4911 0.7947 -0.3568
vn 0.4089 0.6617 -0.6284
vn -0.7002 0.6617 0.2680
vn -0.6071 0.7947 -0.0000
vn -0.3313 0.9435 -0.0000
vn 0.0385 0.6617 -0.7488
vn -0.1876 0.7947 -0.5773
vn -0.4713 0.6617 -0.5831
vt 0.181819 0.000000
vt 0.136365 0.078731
vt 0.227273 0.078731
vt 0.272728 0.157461
vt 0.363637 0.157461
vt 0.318182 0.078731
vt 0.909091 0.000000
vt 0.863636 0.078731
vt 0.954545 0.078731
vt 0.727273 0.000000
vt 0.681818 0.078731
vt 0.772727 0.078731
vt 0.545455 0.000000
vt 0.500000 0.078731
vt 0.590909 0.078731
vt 0.318182 0.236191
vt 0.090910 0.157461
vt 0.136365 0.236191
vt 0.181819 0.157461
vt 0.818182 0.157461
vt 0.863636 0.236191
vt 0.909091 0.157461
vt 0.636364 0.157461
vt 0.681818 0.236191
vt 0.727273 0.157461
vt 0.454546 0.157461
vt 0.500000 0.236191
vt 0.545455 0.157461
vt 0.227273 0.236191
vt 0.045455 0.236191
vt 0.772727 0.236191
vt 0.590909 0.236191
vt 0.409092 0.236191
vt 0.181819 0.314921
vt 0.227273 0.393651
vt 0.272728 0.314921
vt 0.000000 0.314921
vt 0.045455 0.393651
vt 0.090910 0.314921
vt 0.727273 0.314921
vt 0.772727 0.393651
vt 0.818182 0.314921
vt 0.545455 0.314921
vt 0.590909 0.393651
vt 0.636364 0.314921
vt 0.363637 0.314921
vt 0.409092 0.393651
vt 0.454546 0.314921
vt 0.454546 0.472382
vt 0.500000 0.393651
vt 0.636364 0.472382
vt 0.681818 0.393651
vt 0.818182 0.472382
vt 0.863636 0.393651
vt 0.909091 0.314921
vt 0.090910 0.472382
vt 0.136365 0.393651
vt 0.272728 0.472382
vt 0.318182 0.393651
vt 0.954545 0.236191
vt 1.000000 0.157461
vt 0.409092 0.078731
vt 0.363637 0.000000
s 0
usemtl Material.001
f 1/1/1 13/2/1 14/3/1
f 2/4/2 16/5/2 14/6/2
f 1/7/3 18/8/3 13/9/3
f 1/10/4 20/11/4 18/12/4
f 1/13/5 17/14/5 20/15/5
f 2/4/6 23/16/6 16/5/6
f 3/17/7 25/18/7 15/19/7
f 4/20/8 27/21/8 19/22/8
f 5/23/9 29/24/9 21/25/9
f 6/26/10 31/27/10 22/28/10
f 2/4/11 26/29/11 23/16/11
f 3/17/12 28/30/12 25/18/12
f 4/20/13 30/31/13 27/21/13
f 5/23/14 32/32/14 29/24/14
f 6/26/15 24/33/15 31/27/15
f 7/34/16 38/35/16 33/36/16
f 8/37/17 40/38/17 34/39/17
f 9/40/18 41/41/18 35/42/18
f 10/43/19 42/44/19 36/45/19
f 11/46/20 39/47/20 37/48/20
f 39/47/21 12/49/21 42/50/21
f 39/47/22 42/50/22 37/48/22
f 37/48/23 42/50/23 10/43/23
f 42/44/24 12/51/24 41/52/24
f 42/44/25 41/52/25 36/45/25
f 36/45/26 41/52/26 9/40/26
f 41/41/27 12/53/27 40/54/27
f 41/41/28 40/54/28 35/42/28
f 35/42/29 40/54/29 8/55/29
f 40/38/30 12/56/30 38/57/30
f 40/38/31 38/57/31 34/39/31
f 34/39/32 38/57/32 7/34/32
f 38/35/33 12/58/33 39/59/33
f 38/35/34 39/59/34 33/36/34
f 33/36/35 39/59/35 11/46/35
f 24/33/36 11/46/36 37/48/36
f 24/33/37 37/48/37 31/27/37
f 31/27/38 37/48/38 10/43/38
f 32/32/39 10/43/39 36/45/39
f 32/32/40 36/45/40 29/24/40
f 29/24/41 36/45/41 9/40/41
f 30/31/42 9/40/42 35/42/42
f 30/31/43 35/42/43 27/21/43
f 27/21/44 35/42/44 8/55/44
f 28/30/45 8/37/45 34/39/45
f 28/30/46 34/39/46 25/18/46
f 25/18/47 34/39/47 7/34/47
f 26/29/48 7/34/48 33/36/48
f 26/29/49 33/36/49 23/16/49
f 23/16/50 33/36/50 11/46/50
f 31/27/51 10/43/51 32/32/51
f 31/27/52 32/32/52 22/28/52
f 22/28/53 32/32/53 5/23/53
f 29/24/54 9/40/54 30/31/54
f 29/24/55 30/31/55 21/25/55
f 21/25/56 30/31/56 4/20/56
f 27/21/57 8/55/57 28/60/57
f 27/21/58 28/60/58 19/22/58
f 19/22/59 28/60/59 3/61/59
f 25/18/60 7/34/60 26/29/60
f 25/18/61 26/29/61 15/19/61
f 15/19/62 26/29/62 2/4/62
f 23/16/63 11/46/63 24/33/63
f 23/16/64 24/33/64 16/5/64
f 16/5/65 24/33/65 6/26/65
f 17/14/66 6/26/66 22/28/66
f 17/14/67 22/28/67 20/15/67
f 20/15/68 22/28/68 5/23/68
f 20/11/69 5/23/69 21/25/69
f 20/11/70 21/25/70 18/12/70
f 18/12/71 21/25/71 4/20/71
f 18/8/72 4/20/72 19/22/72
f 18/8/73 19/22/73 13/9/73
f 13/9/74 19/22/74 3/61/74
f 16/5/75 6/26/75 17/62/75
f 16/5/76 17/62/76 14/6/76
f 14/6/77 17/62/77 1/63/77
f 13/2/78 3/17/78 15/19/78
f 13/2/79 15/19/79 14/3/79
f 14/3/80 15/19/80 2/4/80
f 43/1/24 56/3/24 55/2/24
f 44/4/18 56/6/18 58/5/18
f 43/7/21 55/9/21 60/8/21
f 43/10/33 60/12/33 62/11/33
f 43/13/30 62/15/30 59/14/30
f 44/4/42 58/5/42 65/16/42
f 45/17/39 57/19/39 67/18/39
f 46/20/36 61/22/36 69/21/36
f 47/23/48 63/25/48 71/24/48
f 48/26/45 64/28/45 73/27/45
f 44/4/54 65/16/54 68/29/54
f 45/17/51 67/18/51 70/30/51
f 46/20/63 69/21/63 72/31/63
f 47/23/60 71/24/60 74/32/60
f 48/26/57 73/27/57 66/33/57
f 49/34/69 75/36/69 80/35/69
f 50/37/66 76/39/66 82/38/66
f 51/40/2 77/42/2 83/41/2
f 52/43/78 78/45/78 84/44/78
f 53/46/72 79/48/72 81/47/72
f 81/47/3 84/50/3 54/49/3
f 81/47/73 79/48/73 84/50/73
f 79/48/74 52/43/74 84/50/74
f 84/44/1 83/52/1 54/51/1
f 84/44/79 78/45/79 83/52/79
f 78/45/80 51/40/80 83/52/80
f 83/41/77 82/54/77 54/53/77
f 83/41/76 77/42/76 82/54/76
f 77/42/75 50/55/75 82/54/75
f 82/38/5 80/57/5 54/56/5
f 82/38/67 76/39/67 80/57/67
f 76/39/68 49/34/68 80/57/68
f 80/35/4 81/59/4 54/58/4
f 80/35/70 75/36/70 81/59/70
f 75/36/71 53/46/71 81/59/71
f 66/33/8 79/48/8 53/46/8
f 66/33/58 73/27/58 79/48/58
f 73/27/59 52/43/59 79/48/59
f 74/32/7 78/45/7 52/43/7
f 74/32/61 71/24/61 78/45/61
f 71/24/62 51/40/62 78/45/62
f 72/31/6 77/42/6 51/40/6
f 72/31/64 69/21/64 77/42/64
f 69/21/65 50/55/65 77/42/65
f 70/30/10 76/39/10 50/37/10
f 70/30/52 67/18/52 76/39/52
f 67/18/53 49/34/53 76/39/53
f 68/29/9 75/36/9 49/34/9
f 68/29/55 65/16/55 75/36/55
f 65/16/56 53/46/56 75/36/56
f 73/27/12 74/32/12 52/43/12
f 73/27/46 64/28/46 74/32/46
f 64/28/47 47/23/47 74/32/47
f 71/24/11 72/31/11 51/40/11
f 71/24/49 63/25/49 72/31/49
f 63/25/50 46/20/50 72/31/50
f 69/21/15 70/60/15 50/55/15
f 69/21/37 61/22/37 70/60/37
f 61/22/38 45/61/38 70/60/38
f 67/18/14 68/29/14 49/34/14
f 67/18/40 57/19/40 68/29/40
f 57/19/41 44/4/41 68/29/41
f 65/16/13 66/33/13 53/46/13
f 65/16/43 58/5/43 66/33/43
f 58/5/44 48/26/44 66/33/44
f 59/14/17 64/28/17 48/26/17
f 59/14/31 62/15/31 64/28/31
f 62/15/32 47/23/32 64/28/32
f 62/11/16 63/25/16 47/23/16
f 62/11/34 60/12/34 63/25/34
f 60/12/35 46/20/35 63/25/35
f 60/8/20 61/22/20 46/20/20
f 60/8/22 55/9/22 61/22/22
f 55/9/23 45/61/23 61/22/23
f 58/5/29 59/62/29 48/26/29
f 58/5/28 56/6/28 59/62/28
f 56/6/27 43/63/27 59/62/27
f 55/2/19 57/19/19 45/17/19
f 55/2/25 56/3/25 57/19/25
f 56/3/26 44/4/26 57/19/26
